<?xml version="1.0" standalone="no"?>
<!DOCTYPE svg PUBLIC "-//W3C//DTD SVG 20010904//EN"
 "http://www.w3.org/TR/2001/REC-SVG-20010904/DTD/svg10.dtd">
<svg version="1.0" xmlns="http://www.w3.org/2000/svg"
 width="1024.000000pt" height="1024.000000pt" viewBox="0 0 1024.000000 1024.000000"
 preserveAspectRatio="xMidYMid meet">
<metadata>
Created by potrace 1.11, written by Peter Selinger 2001-2013
</metadata>
<g transform="translate(0.000000,1024.000000) scale(0.100000,-0.100000)"
fill="#000000" stroke="none">
<path d="M900 10229 c-102 -11 -234 -51 -333 -100 -303 -152 -509 -441 -556
-783 -15 -109 -15 -8343 0 -8452 23 -166 93 -346 182 -464 150 -200 343 -332
582 -398 l100 -27 4245 0 4245 0 100 27 c416 115 706 442 764 862 15 109 15
8343 0 8452 -23 166 -93 346 -182 464 -150 200 -343 332 -582 398 l-100 27
-4195 1 c-2307 1 -4229 -2 -4270 -7z m4413 -3384 c92 -19 231 -80 423 -187
232 -128 245 -133 384 -132 114 1 246 25 384 70 l48 16 -53 54 c-29 30 -51 54
-48 54 4 0 64 -9 134 -20 114 -17 131 -18 163 -5 30 13 33 13 22 0 -10 -12
-10 -16 1 -19 50 -16 317 -29 637 -30 l374 -1 115 -270 c274 -643 400 -956
604 -1510 71 -192 134 -354 139 -359 7 -7 10 9 10 45 0 29 7 234 16 454 9 227
14 517 12 670 -4 259 -6 273 -30 345 -54 156 -183 400 -279 528 l-40 52 318 0
c175 0 370 5 433 10 63 5 183 14 265 19 83 6 179 13 215 17 l65 6 -76 -79
c-142 -147 -231 -304 -254 -448 -22 -133 -53 -710 -75 -1375 -11 -338 -45
-1065 -56 -1217 -6 -72 -9 -82 -28 -87 -11 -3 -106 -6 -211 -6 l-190 0 -74
133 c-138 247 -401 737 -538 1005 -75 147 -183 347 -240 444 -109 188 -322
539 -346 573 -15 19 -16 18 -22 -17 -4 -20 -5 -241 -2 -490 5 -486 13 -582 63
-783 32 -127 148 -489 213 -665 28 -74 49 -135 48 -136 -1 -1 -114 2 -252 7
-304 11 -524 -5 -1032 -75 -51 -7 -93 -11 -93 -8 0 3 20 31 44 61 71 92 141
205 211 341 106 209 100 159 100 880 -1 815 -32 1520 -71 1622 -9 24 -42 81
-72 127 l-56 85 -79 -84 c-181 -191 -202 -224 -563 -878 -74 -135 -114 -197
-118 -186 -3 8 -6 50 -6 92 0 344 -141 666 -332 762 -102 50 -206 35 -346 -53
-261 -162 -553 -624 -643 -1017 -46 -199 -33 -462 35 -731 70 -277 143 -425
277 -561 129 -131 226 -166 384 -139 254 45 494 252 618 534 22 51 41 93 42
95 5 6 685 -122 685 -130 0 -14 -123 -152 -240 -269 -287 -284 -662 -499
-1015 -579 -138 -32 -334 -37 -460 -12 -182 36 -356 111 -535 229 -297 197
-528 488 -643 809 -89 248 -82 499 23 859 133 456 377 895 663 1192 304 316
613 435 950 368z m-4393 -119 c367 -37 413 -39 838 -33 l424 5 -61 -28 c-34
-16 -80 -44 -102 -62 -54 -43 -125 -138 -160 -213 -64 -136 -129 -620 -155
-1155 -6 -119 -5 -133 8 -120 73 74 595 691 755 891 237 298 303 397 303 456
0 51 -24 133 -62 207 l-29 58 98 -6 c337 -21 680 -28 1083 -22 l445 6 -115
-36 c-193 -60 -467 -194 -676 -332 -186 -123 -520 -411 -820 -707 l-186 -184
77 -148 c228 -434 482 -859 670 -1118 155 -213 475 -475 760 -621 41 -22 75
-41 75 -44 0 -6 -1312 -72 -1317 -66 -2 1 5 18 14 37 13 26 17 60 17 149 0
112 -1 118 -43 222 -54 137 -304 635 -491 980 l-145 268 -145 -153 c-269 -281
-249 -257 -261 -328 -17 -99 -13 -380 5 -474 27 -134 167 -391 322 -592 36
-47 64 -87 62 -88 -2 -2 -53 5 -113 15 -149 26 -402 36 -535 21 -104 -12 -536
-83 -722 -119 -54 -10 -98 -18 -98 -17 0 2 29 24 65 51 127 93 228 258 249
407 15 113 14 1850 -2 2218 -10 220 -16 290 -33 350 -26 93 -85 220 -130 279
-52 67 -55 73 -33 66 11 -3 84 -12 164 -20z"/>
</g>
</svg>
